HIERARCHY
ROOT Hips
{
   OFFSET 0.00000 0.00000 0.00000
   CHANNELS 6 Xposition Yposition Zposition Zrotation Xrotation Yrotation
   JOINT RightUpLeg
   {
      OFFSET -8.945800 -8.667070 0.101652
      CHANNELS 3 Zrotation Xrotation Yrotation
      JOINT RightLeg
      {
         OFFSET 0.000000 -44.422697 1.372700
         CHANNELS 3 Zrotation Xrotation Yrotation
         JOINT RightFoot
         {
            OFFSET 0.253549 -42.092399 -1.460590
            CHANNELS 3 Zrotation Xrotation Yrotation
            JOINT RightToes
            {
               OFFSET 0.040000 -4.415090 8.499099
               CHANNELS 3 Zrotation Xrotation Yrotation
               End Site
               {
                  OFFSET -0.080000 -0.137448 9.779790
               }
            }
         }
      }
   }
   JOINT Spine
   {
      OFFSET 0.000000 11.890501 0.000000
      CHANNELS 3 Zrotation Xrotation Yrotation
      JOINT Spine1
      {
         OFFSET 0.000000 25.657401 0.127663
         CHANNELS 3 Zrotation Xrotation Yrotation
         JOINT HEad
         {
            OFFSET 0.000000 8.734161 0.011341
            CHANNELS 3 Zrotation Xrotation Yrotation
            End Site
            {
               OFFSET -0.290000 12.774200 2.513950
            }
         }
         JOINT LeftShoulder1
         {
            OFFSET 8.990000 -0.362252 -0.220000
            CHANNELS 3 Zrotation Xrotation Yrotation
            JOINT LeftArm
            {
               OFFSET 10.282700 -0.003380 0.322123
               CHANNELS 3 Zrotation Xrotation Yrotation
               JOINT LeftForeArm
               {
                  OFFSET 32.766900 0.099144 -1.424340
                  CHANNELS 3 Zrotation Xrotation Yrotation
                  JOINT LeftHand
                  {
                     OFFSET 27.564301 0.085362 1.022160
                     CHANNELS 3 Zrotation Xrotation Yrotation
                     End Site
                     {
                        OFFSET 16.744301 -0.600000 1.502910
                     }
                  }
               }
            }
         }
         JOINT RightShoulder
         {
            OFFSET -8.990000 -0.362252 -0.220000
            CHANNELS 3 Zrotation Xrotation Yrotation
            JOINT RightArm
            {
               OFFSET -10.282700 -0.003380 0.322123
               CHANNELS 3 Zrotation Xrotation Yrotation
               JOINT RightForeArm
               {
                  OFFSET -32.897098 0.099144 -1.424340
                  CHANNELS 3 Zrotation Xrotation Yrotation
                  JOINT RightHand
                  {
                     OFFSET -27.492101 0.085362 1.022160
                     CHANNELS 3 Zrotation Xrotation Yrotation
                     End Site
                     {
                        OFFSET -16.631201 -0.600000 1.502910
                     }
                  }
               }
            }
         }
      }
   }
   JOINT LeftUpLeg
   {
      OFFSET 8.945800 -8.667070 0.101652
      CHANNELS 3 Zrotation Xrotation Yrotation
      JOINT LeftLeg
      {
         OFFSET 0.000000 -44.422697 1.372700
         CHANNELS 3 Zrotation Xrotation Yrotation
         JOINT LeftFoot
         {
            OFFSET -0.253549 -42.092399 -1.460590
            CHANNELS 3 Zrotation Xrotation Yrotation
            JOINT LeftToes
            {
               OFFSET -0.040000 -4.415090 8.499099
               CHANNELS 3 Zrotation Xrotation Yrotation
               End Site
               {
                  OFFSET 0.080000 -0.047448 9.779790
               }
            }
         }
      }
   }
}
MOTION
Frames: 13
Frame Time: 0.016667
-405.502657 89.901932 -33.417587 50.425395 -5.931480 93.709335 -25.693719 48.267922 -3.709463 18.398679 30.558283 10.402258 -53.112524 24.732385 15.866270 12.349844 -15.006974 -55.748171 -2.537723 58.505570 125.044781 14.483420 -14.881575 -137.951475 21.924345 15.598982 0.884418 79.777135 80.427472 -71.410311 -112.680008 68.572319 -199.772638 -80.032120 76.486719 28.524910 -130.208185 -46.886274 -81.463352 28.330701 -7.829856 39.494503 100.807465 -51.093496 74.925953 31.143726 56.234761 98.046519 0.355561 2.703347 -6.629914 15.246082 22.425359 5.898207 -17.393114 27.351452 73.630491 -18.656303 23.974408 -13.358270 -8.719299 -18.413505 -31.498029
-404.975656 90.697440 -33.587856 50.333191 -6.010840 93.822675 -25.306186 50.113825 -3.681523 18.806699 30.278454 12.351276 -51.120503 23.415731 15.516924 12.034348 -15.517006 -55.935663 -2.384009 58.230156 126.951510 13.323423 -14.350325 -137.843558 20.700143 14.322107 0.093407 81.386622 80.304918 -72.553623 -108.194629 69.820755 -200.626835 -88.780452 79.113057 35.071488 -134.494061 -49.650435 -84.491414 34.640732 -7.554270 40.436045 94.274786 -55.784498 71.203219 32.227018 62.911909 107.001313 -10.424435 -0.415524 -13.752784 13.812757 22.381287 4.314021 -15.937166 27.320135 72.989129 -18.024031 23.838318 -13.355350 -8.989106 -18.361189 -31.153080
-404.448961 91.418570 -33.666946 49.100454 -5.928864 94.267764 -24.104549 51.281333 -4.101164 20.481700 30.186581 14.916066 -49.245831 22.178985 15.109587 11.740675 -16.173804 -56.419849 -1.473934 58.984878 128.811712 11.162680 -13.044695 -138.385561 18.928182 13.981236 -1.586100 82.882119 79.169911 -73.665885 -101.501174 72.556314 -204.001713 -101.297067 80.906842 44.219399 -138.336029 -52.139776 -89.325576 40.301565 -6.690293 40.829129 88.232268 -62.976031 67.178558 25.832457 68.039729 117.781913 -22.777206 -3.990152 -25.702668 12.057867 21.249408 2.279406 -14.398821 27.506746 71.557781 -17.741765 23.561777 -13.478192 -9.406364 -18.233760 -30.622815
-403.872904 92.204569 -33.672602 47.069603 -5.924425 93.914951 -22.589963 52.351409 -4.362460 23.394603 30.001340 19.544376 -48.500784 21.329583 14.743248 11.589717 -16.796352 -57.147964 0.608866 59.091812 130.404895 8.507789 -11.754137 -139.880225 16.657689 15.701258 -6.421381 83.678936 76.168022 -74.745929 -96.203447 76.941070 -212.413474 -118.772673 78.542627 58.835851 -131.662415 -44.011096 -80.830767 38.858299 -3.637788 44.785195 86.439855 -78.638092 64.184155 1.230761 69.479942 147.550459 -34.562779 -13.335899 -44.589760 9.844809 19.722016 -0.017697 -12.424097 26.427242 67.522239 -18.048896 23.603199 -14.306398 -9.938415 -17.394991 -29.903070
-403.339723 93.057364 -33.675768 46.326178 -6.126092 94.114693 -20.974051 54.771140 -4.182545 25.827312 30.140539 23.808197 -46.920524 20.911432 14.653756 11.738442 -17.031063 -57.962112 3.163041 56.176670 132.904102 8.072385 -9.881077 -140.993928 17.005467 16.711654 -14.441609 84.637614 73.769827 -75.064605 -90.181132 79.428406 -215.986223 -127.419228 76.110656 66.836516 -131.868960 -46.679456 -81.522713 36.539340 -2.015285 38.035879 76.390161 -80.465304 48.478132 -1.588111 67.127693 158.041097 -40.235733 -21.576125 -52.497449 7.299242 19.780761 -1.665597 -9.804035 25.162770 62.510069 -18.596039 23.094847 -14.289364 -10.801285 -16.566089 -28.449780
-402.733339 93.753336 -33.708262 43.828368 -5.955988 94.541382 -19.144595 55.525859 -4.459186 28.605886 29.707430 26.882685 -46.087924 20.427521 14.839679 11.742603 -17.326009 -58.596671 6.461066 53.840892 136.441976 6.805573 -8.288483 -141.613905 16.592602 17.579829 -23.206684 83.640639 72.914366 -75.113421 -85.604482 81.583290 -217.581523 -132.659335 74.237927 70.225191 -128.417556 -44.427918 -77.989060 35.075777 -3.068974 29.099020 70.011194 -80.621094 42.391962 18.894118 61.571123 122.905402 -37.053428 -34.803478 -49.979271 3.658684 18.595707 -3.409896 -5.980869 22.636131 55.843992 -19.543012 21.316498 -14.433988 -11.720186 -16.126075 -27.092693
-402.085108 94.468068 -33.821806 44.306064 -5.844905 95.029945 -18.213430 57.610310 -4.509660 29.299514 29.445345 28.893701 -46.057892 20.292714 14.751563 12.264554 -17.045669 -59.199729 9.979485 54.375447 142.575568 7.815326 -4.422310 -140.723467 14.487494 19.339711 -32.040554 82.061239 74.379374 -76.965003 -81.228674 81.758935 -214.541214 -139.085560 70.616609 70.943604 -128.849360 -47.798541 -79.120174 35.556903 -5.035099 21.352138 71.207871 -75.093524 45.198558 38.525771 47.629511 95.357685 -21.159701 -35.906380 -23.203676 0.834402 20.341842 -4.934911 -2.815524 20.897975 48.327103 -19.968316 19.653740 -14.017606 -12.722105 -15.832353 -25.483021
-401.428751 95.053862 -34.111986 45.189406 -6.949180 94.639327 -18.186559 59.184525 -4.041558 29.237776 29.347414 30.345376 -45.699293 20.066831 14.730819 12.743355 -16.545411 -59.418602 12.258586 51.636578 145.354717 4.070041 -3.822007 -142.683239 14.769386 17.010596 -40.381093 79.250576 75.536169 -80.461835 -80.973511 82.604444 -212.599036 -138.425408 68.173894 73.282520 -127.990505 -47.005536 -77.233607 33.451763 -6.610450 17.849262 76.372518 -67.704510 53.312294 44.985812 26.949172 71.031898 -2.939256 -34.169012 -8.945637 -0.669217 23.291515 -5.619069 -0.693075 17.737807 40.997377 -19.597893 17.304011 -13.018190 -13.897684 -16.213464 -23.504894
-400.897135 95.591925 -34.499747 45.181712 -7.028234 94.538684 -18.724130 59.676551 -3.579650 28.967946 28.927262 31.171037 -45.594477 19.436411 14.496163 13.036558 -16.092288 -59.483906 14.566186 49.655906 147.555800 2.070814 -2.487977 -143.899928 15.059664 15.473572 -47.392671 76.098348 78.417955 -83.016366 -80.647725 82.887440 -209.518143 -138.191857 64.944437 73.663064 -129.115328 -49.221304 -78.256401 22.324577 -6.010584 22.308521 93.142053 -69.072132 69.124704 47.247601 6.889691 55.934939 7.654618 -18.596901 6.949871 -1.795882 25.619988 -6.683291 0.124416 14.702749 34.882558 -18.844176 15.178014 -12.418040 -14.685153 -16.413219 -22.175054
-400.443071 96.043395 -34.971687 44.770462 -6.695167 94.771620 -18.542464 59.167251 -2.919473 28.043664 28.525032 31.300168 -45.134109 18.689141 13.911261 13.481464 -15.469439 -59.766676 15.490427 47.664397 150.102150 0.963619 -0.552013 -143.789006 15.129911 13.909528 -53.081105 73.486545 81.421394 -84.550201 -80.295301 83.199265 -206.728653 -137.318385 61.744903 73.572762 -129.360190 -49.159474 -77.725750 18.706046 -5.202932 17.614126 98.229363 -61.979001 78.838982 48.351951 -8.373676 45.038141 16.643004 -12.389825 9.343360 -2.041713 27.425906 -7.314050 -1.059718 11.313507 30.364552 -17.477336 13.845383 -11.853901 -15.233477 -16.423975 -21.239720
-400.146974 96.232680 -35.431573 46.089560 -6.940868 94.919877 -19.376251 60.009018 -1.976545 27.283049 28.872227 31.178308 -44.428434 17.891904 13.405932 13.917573 -14.927315 -60.234216 17.568196 49.401211 151.389599 3.477070 -0.333528 -143.123609 15.732799 15.295396 -57.109766 71.777317 81.628800 -83.721044 -80.317499 82.958528 -206.155408 -135.469712 59.066533 72.385177 -130.634922 -50.597208 -79.035227 6.808433 1.044722 19.825743 116.306947 -56.579139 99.716233 51.580950 -16.268488 42.881994 21.832606 3.321856 12.141456 -1.869910 30.420368 -8.782372 -1.573397 9.024457 26.667685 -15.843652 12.732689 -11.640171 -15.568451 -16.717226 -20.542646
-399.873689 96.388491 -35.907733 45.268069 -7.238044 94.872250 -20.685923 59.426539 -1.643284 27.734349 28.352988 31.273210 -43.404940 16.057563 13.043347 14.081797 -14.666851 -60.652128 18.380575 45.785763 151.788810 3.976502 -1.721734 -142.656274 16.092347 16.532908 -59.995412 70.338060 80.337170 -83.821407 -80.096925 83.785288 -205.974887 -132.340830 56.567859 71.248066 -130.768876 -51.363374 -79.476348 8.082497 4.707600 18.006165 119.848947 -48.378107 110.315758 59.294880 -19.468696 44.985634 31.232508 0.247883 7.309483 -1.314943 32.078803 -11.261492 -2.740177 5.311567 25.083383 -13.321808 10.753198 -12.033922 -15.934037 -17.637314 -19.574839
-399.659990 96.419867 -36.322591 44.145101 -8.334180 94.290980 -21.911279 59.925068 -0.933554 28.174337 27.664759 31.303990 -43.229818 13.789425 13.303847 13.555059 -14.907882 -60.394951 17.151811 43.064046 152.817000 5.399319 -2.182858 -140.995213 15.412564 18.329349 -61.635654 69.434644 79.837132 -83.175803 -80.034292 83.912842 -206.406568 -129.067612 54.377568 70.331353 -131.380533 -53.357096 -80.618649 7.657914 8.708162 17.964762 121.121534 -39.910708 121.008303 67.907421 -23.443018 46.034532 22.249623 13.762325 -7.397600 -0.076253 32.866962 -14.531528 -3.623224 1.631204 25.238019 -9.997085 9.024033 -12.820837 -16.094248 -18.740895 -18.694788
